# xmcd CD database file
#
# Track frame offsets:
#	182
#	17787
#	34447
#	47337
#	66182
#	82767
#	99182
#	112900
#	126850
#	141282
#	154562
#	173262
#	188555
#	203237
#	220097
#	233187
#	247557
#	259620
#	275627
#	289015
#
# Disc length: 4025 seconds
#
# Revision: 2
# Processed by: cddbd v1.4PL0 Copyright (c) Steve Scherf et al.
# Submitted via: CDex 1.50Beta7
#
DISCID=010fb714
DTITLE=Kenny Rogers - Love Songs
DYEAR=1900
DGENRE=
TTITLE0=Lady
TTITLE1=Don't fall in love with a dreamer
TTITLE2=Ruby (Don't take your love to town)
TTITLE3=She believes in me
TTITLE4=Lucille
TTITLE5=You decorated my life
TTITLE6=Everytime two fools collide
TTITLE7=All I ever need is you
TTITLE8=You needed me
TTITLE9=Together again
TTITLE10=You've lost that loving feeling
TTITLE11=Why don't we go somewhere and love
TTITLE12=But you know I love you
TTITLE13=Love lifted me
TTITLE14=Love or something like it
TTITLE15=(Hey Won't you Play) Another somebody done somebody
TTITLE16=My world begins and ends with you
TTITLE17=Just the way you are
TTITLE18=You and me
TTITLE19=We Love Each Other
EXTD=
EXTT0=
EXTT1=
EXTT2=
EXTT3=
EXTT4=
EXTT5=
EXTT6=
EXTT7=
EXTT8=
EXTT9=
EXTT10=
EXTT11=
EXTT12=
EXTT13=
EXTT14=
EXTT15=
EXTT16=
EXTT17=
EXTT18=
EXTT19=
PLAYORDER=
